HIERARCHY
ROOT Hips
{
 OFFSET 0.000000 0.000000 0.000000
 CHANNELS 6 Xposition Yposition Zposition Yrotation Xrotation Zrotation
 JOINT Chest
 {
  OFFSET 0.000000 14.374500 -0.011500
  CHANNELS 3 Yrotation Xrotation Zrotation
  JOINT Chest2
  {
   OFFSET 0.000000 9.203400 0.023400
   CHANNELS 3 Yrotation Xrotation Zrotation
   JOINT Chest3
   {
    OFFSET 0.000000 9.162700 0.000000
    CHANNELS 3 Yrotation Xrotation Zrotation
    JOINT Chest4
    {
     OFFSET 0.000000 9.153300 0.000000
     CHANNELS 3 Yrotation Xrotation Zrotation
     JOINT Neck
     {
      OFFSET 0.000000 13.353600 0.000000
      CHANNELS 3 Yrotation Xrotation Zrotation
      JOINT Head
      {
       OFFSET 0.000000 8.573800 0.049400
       CHANNELS 3 Yrotation Xrotation Zrotation
       End Site
       {
        OFFSET 0.000000 16.219200 0.026100
       }
      }
     }
     JOINT RightCollar
     {
      OFFSET -2.497100 8.876100 0.000000
      CHANNELS 3 Yrotation Xrotation Zrotation
      JOINT RightShoulder
      {
       OFFSET -12.289200 0.000000 0.000000
       CHANNELS 3 Yrotation Xrotation Zrotation
       JOINT RightElbow
       {
        OFFSET 0.000000 -28.194900 0.000000
        CHANNELS 3 Yrotation Xrotation Zrotation
        JOINT RightWrist
        {
         OFFSET 0.000000 -23.009700 0.007900
         CHANNELS 3 Yrotation Xrotation Zrotation
         End Site
         {
          OFFSET 0.000000 -17.151500 0.000000
         }
        }
       }
      }
     }
     JOINT LeftCollar
     {
      OFFSET 2.497100 8.876100 0.000000
      CHANNELS 3 Yrotation Xrotation Zrotation
      JOINT LeftShoulder
      {
       OFFSET 12.289200 0.000000 0.000000
       CHANNELS 3 Yrotation Xrotation Zrotation
       JOINT LeftElbow
       {
        OFFSET 0.000000 -28.194900 0.000000
        CHANNELS 3 Yrotation Xrotation Zrotation
        JOINT LeftWrist
        {
         OFFSET 0.000000 -23.009700 0.007900
         CHANNELS 3 Yrotation Xrotation Zrotation
         End Site
         {
          OFFSET 0.000000 -17.151500 0.000000
         }
        }
       }
      }
     }
    }
   }
  }
 }
 JOINT RightHip
 {
  OFFSET -11.777600 0.056700 0.005700
  CHANNELS 3 Yrotation Xrotation Zrotation
  JOINT RightKnee
  {
   OFFSET 0.000000 -39.966000 -0.004200
   CHANNELS 3 Yrotation Xrotation Zrotation
   JOINT RightAnkle
   {
    OFFSET 0.000000 -41.981900 0.027400
    CHANNELS 3 Yrotation Xrotation Zrotation
    JOINT RightToe
    {
     OFFSET 0.000000 -9.910600 16.950100
     CHANNELS 3 Yrotation Xrotation Zrotation
     End Site
     {
      OFFSET 0.000000 -1.461000 6.191600
     }
    }
   }
  }
 }
 JOINT LeftHip
 {
  OFFSET 11.777600 0.056700 0.005700
  CHANNELS 3 Yrotation Xrotation Zrotation
  JOINT LeftKnee
  {
   OFFSET 0.000000 -39.966000 -0.004200
   CHANNELS 3 Yrotation Xrotation Zrotation
   JOINT LeftAnkle
   {
    OFFSET 0.000000 -41.981900 0.027400
    CHANNELS 3 Yrotation Xrotation Zrotation
    JOINT LeftToe
    {
     OFFSET 0.000000 -9.910600 16.950100
     CHANNELS 3 Yrotation Xrotation Zrotation
     End Site
     {
      OFFSET 0.000000 -1.461000 6.191600
     }
    }
   }
  }
 }
}
MOTION
Frames: 15
Frame Time: 0.008333
0.000000 91.618700 0.000000 0.000000 -5.767877 0.000000 0.000000 11.653817 0.000000 0.000000 -5.885947 0.000000 0.000000 -0.000000 0.000000 0.000000 -0.000000 0.000000 0.000000 12.528835 0.000000 0.000000 0.711642 0.000000 0.000000 -0.000000 0.000000 0.000000 0.000000 -90.000000 0.000000 -2.309062 0.000000 0.000000 2.309062 0.000000 0.000000 -0.000000 0.000000 0.000000 -0.000000 90.000000 0.000000 -2.309062 0.000000 0.000000 2.309062 0.000000 0.000000 8.520406 0.000000 0.000000 1.905762 0.000000 -0.000000 -4.658285 0.000000 0.000000 -0.000000 0.000000 0.000000 8.520406 0.000000 0.000000 1.905762 0.000000 -0.000000 -4.658285 0.000000 0.000000 -0.000000 0.000000
3.664950 152.662307 48.701399 176.725243 -46.909487 -3.180553 3.988988 29.153223 2.984940 0.593152 5.529928 0.440105 0.950000 8.654490 0.723734 2.941542 23.364251 2.366220 -0.064782 13.823668 1.776769 -0.478082 -11.238022 1.920248 2.764052 -2.750433 0.551080 8.540741 -19.296986 -11.451711 43.507068 -69.054054 -29.151476 38.761536 28.550756 -4.516593 -11.488934 -6.331786 -1.382233 -1.787248 -18.282240 7.377355 -24.569587 -65.689644 0.930053 -21.691314 9.378037 16.415679 5.877637 -30.425482 -0.384699 -76.595534 84.892687 -79.043419 1.198037 -25.179090 9.240455 0.073230 -0.224937 0.040381 -0.033974 -25.205789 -2.629093 108.411617 78.680559 116.940643 5.168977 -19.476291 -5.764615 0.077040 0.253349 0.046373
2.660762 145.626183 50.169873 176.811120 -46.907540 -3.330994 3.978350 29.144281 3.079160 0.593302 5.531416 0.440998 0.950320 8.653300 0.713615 2.944222 23.367257 2.370520 -0.062146 13.842563 1.753665 -0.461881 -11.192156 1.850987 2.769548 -2.756524 0.555919 8.552064 -19.299337 -11.457212 43.480640 -69.032009 -29.147174 38.760391 28.539445 -4.565172 -11.484930 -6.338486 -1.379541 -1.786655 -18.279033 7.378453 -24.554380 -65.684511 0.914995 -21.686456 9.365978 16.431625 5.760585 -30.452449 -0.280140 -76.872387 84.899491 -79.324857 1.223709 -25.278475 9.250374 0.035546 -0.150397 0.020777 -0.135090 -25.192526 -2.529878 108.323898 78.687606 116.851284 5.198856 -19.375475 -5.749874 0.041480 0.157986 0.024261
1.831749 139.832522 51.378654 176.893665 -46.911704 -3.455422 3.959085 29.142273 3.147609 0.592258 5.535291 0.445071 0.950019 8.653357 0.711242 2.942972 23.368823 2.361968 -0.058266 13.851504 1.748792 -0.449828 -11.154575 1.795799 2.777525 -2.774736 0.554755 8.570880 -19.301485 -11.459577 43.423704 -69.003005 -29.110456 38.758504 28.538241 -4.629907 -11.482301 -6.341522 -1.371743 -1.789946 -18.285418 7.374988 -24.508644 -65.672854 0.887163 -21.675567 9.330877 16.451807 5.660077 -30.467224 -0.204501 -77.131887 84.909435 -79.584229 1.235282 -25.362158 9.251737 0.014570 -0.080302 0.008516 -0.224237 -25.171470 -2.462340 108.223899 78.689433 116.750295 5.216459 -19.296826 -5.736572 0.012229 0.085859 0.007152
1.228886 135.647529 52.252330 176.940957 -46.914244 -3.520168 3.945985 29.138801 3.178314 0.590857 5.538413 0.443554 0.950268 8.655397 0.713827 2.944914 23.370157 2.354290 -0.057485 13.873712 1.719857 -0.442854 -11.142253 1.781939 2.774023 -2.811517 0.550918 8.574696 -19.273980 -11.443338 43.451903 -68.957419 -29.156906 38.726409 28.517921 -4.699974 -11.484151 -6.345491 -1.363799 -1.790446 -18.289112 7.368747 -24.496289 -65.659959 0.880155 -21.666395 9.306749 16.465111 5.605303 -30.476434 -0.169139 -77.296860 84.914532 -79.745745 1.233900 -25.410090 9.248534 0.010853 -0.046347 0.006344 -0.270672 -25.159296 -2.430472 108.162142 78.691969 116.688770 5.220097 -19.255908 -5.733148 0.005057 0.050386 0.002957
0.850029 133.004524 52.804923 176.979504 -46.918124 -3.575503 3.936035 29.139410 3.207755 0.594106 5.533578 0.436025 0.952691 8.660662 0.716794 2.943628 23.372526 2.355267 -0.056325 13.893479 1.688835 -0.436006 -11.131648 1.767970 2.770418 -2.834566 0.556539 8.595224 -19.267081 -11.454424 43.410210 -68.926450 -29.137710 38.704544 28.506604 -4.765542 -11.484293 -6.356425 -1.357348 -1.791367 -18.283401 7.356149 -24.504714 -65.647072 0.892668 -21.649867 9.282146 16.482518 5.561450 -30.480162 -0.136229 -77.398577 84.916217 -79.843987 1.233308 -25.455619 9.246893 0.003614 -0.019052 0.002113 -0.309733 -25.149433 -2.401889 108.128508 78.697052 116.656246 5.227764 -19.217665 -5.731341 0.000415 0.017026 0.000243
0.640104 131.552067 53.108252 176.992813 -46.930019 -3.594442 3.932640 29.148960 3.216749 0.594611 5.534992 0.436950 0.946540 8.658226 0.706136 2.945749 23.375809 2.357631 -0.048771 13.903673 1.673393 -0.421686 -11.116000 1.735973 2.770553 -2.860321 0.562497 8.601455 -19.250018 -11.457873 43.397942 -68.905918 -29.132031 38.682316 28.494138 -4.838942 -11.479945 -6.372409 -1.349496 -1.783968 -18.272801 7.340599 -24.512444 -65.633640 0.902746 -21.645009 9.266719 16.490853 5.542621 -30.469900 -0.122626 -77.419289 84.917150 -79.865327 1.234376 -25.468537 9.244604 0.002249 -0.008949 0.001315 -0.322355 -25.135852 -2.393576 108.109596 78.695646 116.641911 5.225906 -19.201559 -5.731598 0.002706 0.005860 0.001582
0.538843 130.859342 53.254300 177.000462 -46.932739 -3.600520 3.923797 29.147461 3.212033 0.594051 5.535962 0.435975 0.945555 8.661200 0.705194 2.938112 23.377466 2.350461 -0.033739 13.914901 1.651673 -0.403786 -11.104971 1.708792 2.774206 -2.887290 0.567487 8.607237 -19.228694 -11.456351 43.389538 -68.899181 -29.123202 38.663505 28.491873 -4.922719 -11.480094 -6.422946 -1.346712 -1.776544 -18.223473 7.328210 -24.511336 -65.613281 0.912369 -21.646456 9.242778 16.504568 5.526548 -30.470530 -0.125057 -77.436916 84.925217 -79.889358 1.239935 -25.478768 9.243812 -0.001615 -0.005668 -0.000944 -0.326706 -25.132969 -2.394390 108.107099 78.696566 116.640750 5.223925 -19.194570 -5.730133 0.003334 0.001400 0.001949
0.497443 130.575542 53.315254 177.002843 -46.934211 -3.604180 3.920554 29.147331 3.210184 0.592974 5.536456 0.435165 0.946784 8.662274 0.705914 2.935255 23.378149 2.348127 -0.024790 13.929069 1.619727 -0.383947 -11.098331 1.688214 2.769896 -2.915772 0.567355 8.610422 -19.206486 -11.452870 43.405136 -68.880471 -29.150910 38.628490 28.474087 -5.000533 -11.479756 -6.436795 -1.344106 -1.772301 -18.202399 7.310169 -24.537768 -65.600247 0.950847 -21.632900 9.209805 16.527445 5.518623 -30.471786 -0.124300 -77.440448 84.929259 -79.890042 1.234902 -25.485094 9.240571 -0.002166 -0.004248 -0.001267 -0.326818 -25.130708 -2.392512 108.113706 78.699212 116.648846 5.222066 -19.193408 -5.727730 0.003843 0.000570 0.002247
0.481989 130.476777 53.337159 177.010427 -46.937013 -3.608216 3.912569 29.149421 3.204075 0.588897 5.538607 0.428763 0.951465 8.661161 0.712396 2.932079 23.378883 2.345603 -0.014444 13.940892 1.596704 -0.362707 -11.091501 1.662688 2.764631 -2.946369 0.568501 8.592653 -19.187425 -11.442437 43.445263 -68.841658 -29.204812 38.580372 28.426366 -5.067293 -11.480646 -6.450619 -1.339818 -1.773354 -18.169285 7.279980 -24.601143 -65.569281 1.035536 -21.613438 9.154130 16.561964 5.510559 -30.471940 -0.129125 -77.450194 84.934252 -79.896951 1.237049 -25.485974 9.235291 0.000077 -0.003691 0.000045 -0.329472 -25.127154 -2.393617 108.103223 78.702639 116.633421 5.221896 -19.190711 -5.719198 0.002029 0.000743 0.001186
0.477347 130.447777 53.344532 177.016762 -46.938874 -3.614525 3.908297 29.151343 3.201196 0.584828 5.539896 0.426667 0.945302 8.667143 0.705317 2.938072 23.377874 2.348959 -0.003424 13.945754 1.578249 -0.344451 -11.086082 1.640885 2.768466 -2.967940 0.572167 8.584183 -19.175797 -11.430237 43.476620 -68.819083 -29.249499 38.540696 28.397991 -5.138624 -11.481915 -6.478033 -1.330574 -1.768619 -18.135882 7.257082 -24.658718 -65.552510 1.109499 -21.584737 9.106302 16.602777 5.503117 -30.472532 -0.129674 -77.427870 84.934467 -79.874885 1.244123 -25.485497 9.238135 0.001253 -0.004597 0.000732 -0.331951 -25.124438 -2.392060 108.082783 78.707822 116.613264 5.223346 -19.185478 -5.716050 0.002636 0.000725 0.001541
0.475911 130.441782 53.346141 177.015606 -46.946755 -3.615816 3.897340 29.158424 3.185523 0.591748 5.540610 0.433381 0.944581 8.668238 0.704246 2.934299 23.385363 2.344198 0.005313 13.946519 1.563243 -0.331448 -11.080182 1.622542 2.774485 -2.990845 0.576045 8.577875 -19.164321 -11.417305 43.502444 -68.792781 -29.292541 38.498374 28.367399 -5.212900 -11.479922 -6.510820 -1.322402 -1.767825 -18.099349 7.236990 -24.725597 -65.533964 1.192669 -21.563213 9.077147 16.621317 5.502054 -30.465844 -0.127539 -77.442574 84.929086 -79.886647 1.243917 -25.489348 9.238545 0.001952 -0.004748 0.001141 -0.330232 -25.113056 -2.396153 108.040570 78.705932 116.571992 5.222489 -19.178076 -5.711393 -0.001569 0.001478 -0.000917
0.475170 130.440615 53.347112 177.009367 -46.950253 -3.613615 3.898497 29.160833 3.183503 0.593600 5.540897 0.434229 0.940018 8.669813 0.701506 2.918004 23.387850 2.332058 0.024051 13.951596 1.552105 -0.325382 -11.080959 1.621505 2.775198 -3.049160 0.577199 8.585759 -19.111433 -11.394197 43.522542 -68.777788 -29.319518 38.459387 28.353208 -5.295611 -11.486183 -6.560166 -1.310042 -1.742512 -18.047414 7.224109 -24.781856 -65.513123 1.253233 -21.541134 9.038297 16.657584 5.502810 -30.467140 -0.126264 -77.483492 84.929191 -79.930279 1.248615 -25.491467 9.240709 0.001324 -0.005208 0.000774 -0.326650 -25.109712 -2.394161 108.028153 78.702392 116.558082 5.218385 -19.170401 -5.711196 -0.002209 0.002094 -0.001292
0.474636 130.440333 53.347923 177.009430 -46.951482 -3.616769 3.895980 29.161830 3.182779 0.590026 5.541522 0.431866 0.940414 8.670586 0.702911 2.916739 23.388411 2.332118 0.026236 13.957964 1.534070 -0.320090 -11.081935 1.619822 2.773373 -3.092235 0.572154 8.584899 -19.070246 -11.374730 43.545495 -68.762333 -29.351048 38.417937 28.341600 -5.377477 -11.482853 -6.568010 -1.310716 -1.743297 -18.037971 7.215371 -24.841228 -65.485877 1.317397 -21.498402 8.952460 16.741455 5.501135 -30.467039 -0.123517 -77.488493 84.931344 -79.937515 1.246097 -25.496175 9.244526 0.001463 -0.003763 0.000855 -0.328769 -25.111852 -2.389183 108.039055 78.698483 116.566915 5.211874 -19.165697 -5.712663 -0.002290 0.000562 -0.001339
0.474186 130.440119 53.348616 177.016657 -46.951297 -3.625929 3.892878 29.162388 3.186189 0.589373 5.542087 0.431930 0.931918 8.668276 0.703220 2.914654 23.389206 2.330533 0.032029 13.962491 1.522350 -0.317345 -11.072833 1.594619 2.779116 -3.128196 0.568162 8.579886 -19.034443 -11.356448 43.586452 -68.729627 -29.417944 38.363317 28.314665 -5.443197 -11.486799 -6.595028 -1.307946 -1.749503 -18.005572 7.199408 -24.895524 -65.449135 1.389369 -21.454218 8.838068 16.832829 5.495131 -30.466927 -0.118539 -77.502760 84.929541 -79.952237 1.239133 -25.504916 9.250236 0.001877 -0.004004 0.001097 -0.338228 -25.116188 -2.376053 108.068839 78.701645 116.592188 5.203476 -19.162557 -5.712663 0.001040 -0.001273 0.000608
